<?xml version="1.0" encoding="utf-8"?>
<!-- Generator: Adobe Illustrator 23.0.2, SVG Export Plug-In . SVG Version: 6.00 Build 0)  -->
<svg version="1.1" id="Camada_1" xmlns="http://www.w3.org/2000/svg" xmlns:xlink="http://www.w3.org/1999/xlink" x="0px" y="0px"
	 viewBox="0 0 24 30" style="enable-background:new 0 0 24 30;" xml:space="preserve">
<style type="text/css">
	.st0{fill:#FFFFFF;}
</style>
<g>
	<g>
		<path class="st0" d="M12,2C6.5,2,2,6.5,2,12c0,5.5,4.5,10,10,10s10-4.5,10-10C22,6.5,17.5,2,12,2z M12,21c-0.8,0-1.8-1.5-2.4-4
			h4.9C13.8,19.5,12.8,21,12,21z M9.3,16C9.2,15,9,13.8,9,12.5h6c0,1.3-0.1,2.5-0.3,3.5H9.3z M3,12.5h5c0,1.2,0.1,2.4,0.3,3.5H3.9
			C3.4,14.9,3.1,13.8,3,12.5z M12,3c0.8,0,1.8,1.5,2.4,4H9.6C10.2,4.5,11.2,3,12,3z M14.7,8c0.2,1,0.3,2.2,0.3,3.5H9
			C9,10.2,9.2,9,9.3,8H14.7z M8,11.5H3C3.1,10.2,3.4,9.1,3.9,8h4.4C8.1,9.1,8,10.3,8,11.5z M16,12.5h5c-0.1,1.3-0.4,2.4-0.9,3.5
			h-4.4C15.9,14.9,16,13.7,16,12.5z M16,11.5c0-1.2-0.1-2.4-0.3-3.5h4.4c0.5,1.1,0.9,2.2,0.9,3.5H16z M19.5,7h-4
			c-0.4-1.6-0.9-2.9-1.6-3.8C16.2,3.7,18.2,5.1,19.5,7z M10.1,3.2C9.4,4.1,8.9,5.4,8.5,7h-4C5.8,5.1,7.8,3.7,10.1,3.2z M4.5,17h4
			c0.4,1.6,0.9,2.9,1.6,3.8C7.8,20.3,5.8,18.9,4.5,17z M13.9,20.8c0.6-0.9,1.2-2.2,1.6-3.8h4C18.2,18.9,16.2,20.3,13.9,20.8z"/>
	</g>
</g>
</svg>
