<?xml version="1.0" encoding="utf-8"?>
<!-- Generator: Adobe Illustrator 23.0.2, SVG Export Plug-In . SVG Version: 6.00 Build 0)  -->
<svg version="1.1" xmlns="http://www.w3.org/2000/svg" xmlns:xlink="http://www.w3.org/1999/xlink" x="0px" y="0px"
	 viewBox="0 0 24 27.5" style="enable-background:new 0 0 24 27.5;" xml:space="preserve">
<style type="text/css">
	.st0{fill-rule:evenodd;clip-rule:evenodd;}
</style>
<g id="Camada_1">
	<title>home</title>
	<desc>Created with Sketch.</desc>
	<g>
		<g>
			<path class="st0" d="M14,18.5c0-0.6-0.5-1-1-1h-2c-0.6,0-1,0.4-1,1v-4h4V18.5L14,18.5z M11.3,3.3c0.4-0.4,1-0.4,1.4,0l9.9,9.9
				c0.8,0.8,0.5,1.4-0.6,1.4H2c-1.1,0-1.4-0.6-0.6-1.4L11.3,3.3z M3,14.6h7v9c0,0.5-0.4,1-1,1H4c-0.6,0-1-0.5-1-1V14.6z M14,14.6h7
				v9c0,0.5-0.4,1-1,1h-5c-0.6,0-1-0.5-1-1V14.6z"/>
		</g>
	</g>
</g>
<g id="Camada_2">
</g>
</svg>
