<?xml version="1.0" encoding="utf-8"?>
<!-- Generator: Adobe Illustrator 23.0.2, SVG Export Plug-In . SVG Version: 6.00 Build 0)  -->
<svg version="1.1" xmlns="http://www.w3.org/2000/svg" xmlns:xlink="http://www.w3.org/1999/xlink" x="0px" y="0px"
	 viewBox="0 0 93 116.3" style="enable-background:new 0 0 93 116.3;" xml:space="preserve">
<style type="text/css">
	.st0{fill-rule:evenodd;clip-rule:evenodd;}
	.st1{display:none;}
	.st2{display:inline;}
</style>
<g id="Camada_1">
	<title>a</title>
	<path class="st0" d="M60.5,90.6l-28,10.1V45.4l8.2-2.9c1.1,3.4,2.7,6.6,4.8,9.4L57.8,69c0.7,1,1.7,1.7,2.8,2L60.5,90.6L60.5,90.6z
		 M1.5,35.3l28,10.1v55.3l-28-10.1V35.3z M91.5,45.4v55.3l-28-10.1V70.9c1.1-0.3,2.1-1,2.8-2l12.3-17.1c2.1-2.9,3.7-6.1,4.8-9.4
		L91.5,45.4z M47.7,21.4c-8.2,8.2-5.8,20.3,0.2,28.7l12.3,17.1c0.7,1,2.2,1.3,3.2,0.5c0.2-0.1,0.4-0.3,0.5-0.5l12.3-17.1
		c6-8.4,8.4-20.5,0.2-28.7C68.4,13.6,55.6,13.6,47.7,21.4L47.7,21.4z M62,46.6c5.6,0,10.1-4.5,10.1-10.1S67.6,26.3,62,26.3
		s-10.1,4.5-10.1,10.1l0,0C51.9,42.1,56.4,46.6,62,46.6z M62,29.3c-3.9,0-7.1,3.2-7.1,7.1s3.2,7.2,7.1,7.2s7.1-3.2,7.1-7.1l0,0
		C69.1,32.5,65.9,29.3,62,29.3z"/>
</g>
<g id="Camada_2" class="st1">
	<path class="st2" d="M83.1,95.2c-1.2,3.9-4.8,6.6-8.8,6.8h-62c-2.8,0.2-5.2-1.9-5.4-4.7c0-0.7,0-1.4,0.3-2l11.3-41.5
		c1.2-3.9,4.8-6.6,8.8-6.8h62c2.8-0.2,5.2,1.9,5.4,4.7c0,0.7,0,1.4-0.3,2L83.1,95.2z M16.5,53.2c1.5-4.7,5.8-8,10.8-8.2h54v-6
		c0-3.9-3.1-7-7-7H38.9l-2.5-6.2c-0.7-1.6-2.3-2.7-4.1-2.8h-24c-1.7,0-3,1.3-3,3v68.4L16.5,53.2z"/>
</g>
</svg>
