<?xml version="1.0" encoding="utf-8"?>
<!-- Generator: Adobe Illustrator 23.0.2, SVG Export Plug-In . SVG Version: 6.00 Build 0)  -->
<svg version="1.1" id="Camada_1" xmlns="http://www.w3.org/2000/svg" xmlns:xlink="http://www.w3.org/1999/xlink" x="0px" y="0px"
	 viewBox="0 0 93 116.3" style="enable-background:new 0 0 93 116.3;" xml:space="preserve">
<style type="text/css">
	.st0{fill-rule:evenodd;clip-rule:evenodd;}
</style>
<title>a</title>
<path class="st0" d="M60.5,79l-28,10.1V33.8l8.2-2.9c1.1,3.4,2.7,6.6,4.8,9.4l12.3,17.1c0.7,1,1.7,1.7,2.8,2V79z M1.5,23.7l28,10.1
	v55.3L1.5,79V23.7z M91.5,33.8v55.3L63.5,79V59.3c1.1-0.3,2.1-1,2.8-2l12.3-17.1c2.1-2.9,3.7-6.1,4.8-9.4L91.5,33.8z M47.7,9.8
	c-8.2,8.2-5.8,20.3,0.2,28.7l12.3,17.1c0.7,1,2.2,1.3,3.2,0.5c0.2-0.1,0.4-0.3,0.5-0.5l12.3-17.1c6-8.4,8.4-20.5,0.2-28.7
	C68.4,2,55.6,2,47.7,9.8L47.7,9.8z M62,35c5.6,0,10.1-4.5,10.1-10.1S67.6,14.7,62,14.7s-10.1,4.5-10.1,10.1c0,0,0,0,0,0
	C51.9,30.5,56.4,35,62,35z M62,17.7c-3.9,0-7.1,3.2-7.1,7.1S58.1,32,62,32s7.1-3.2,7.1-7.1c0,0,0,0,0,0C69.1,20.9,65.9,17.7,62,17.7
	z"/>
</svg>
