<?xml version="1.0" encoding="utf-8"?>
<!-- Generator: Adobe Illustrator 23.0.2, SVG Export Plug-In . SVG Version: 6.00 Build 0)  -->
<svg version="1.1" id="Camada_1" xmlns="http://www.w3.org/2000/svg" xmlns:xlink="http://www.w3.org/1999/xlink" x="0px" y="0px"
	 viewBox="0 0 100 125" style="enable-background:new 0 0 100 125;" xml:space="preserve">
<title>files-g-open</title>
<path d="M83.1,95.2c-1.2,3.9-4.8,6.6-8.8,6.8h-62c-2.8,0.2-5.2-1.9-5.4-4.7c0-0.7,0-1.4,0.3-2l11.3-41.5c1.2-3.9,4.8-6.6,8.8-6.8h62
	c2.8-0.2,5.2,1.9,5.4,4.7c0,0.7,0,1.4-0.3,2L83.1,95.2z M16.5,53.2c1.5-4.7,5.8-8,10.8-8.2h54v-6c0-3.9-3.1-7-7-7H38.9l-2.5-6.2
	c-0.7-1.6-2.3-2.7-4.1-2.8h-24c-1.7,0-3,1.3-3,3v68.4L16.5,53.2z"/>
</svg>
